<svg width="144" height="199" viewBox="0 0 144 199" fill="none" xmlns="http://www.w3.org/2000/svg">
<path d="M15.9211 198.207C13.6698 198.207 11.557 197.963 9.5827 197.476C7.60845 196.954 5.87665 196.136 4.3873 195.023C2.89795 193.909 1.703 192.448 0.802466 190.638C0.580674 190.184 0.383043 189.705 0.209573 189.202C-0.750515 186.42 1.73536 183.904 4.66676 183.904H10.362C10.5698 185.54 11.1586 186.758 12.1285 187.558C13.1329 188.324 14.4144 188.707 15.9731 188.707C16.735 188.707 17.4278 188.602 18.0512 188.393C18.7093 188.185 19.2808 187.872 19.7657 187.454C20.2852 187.002 20.7182 186.427 21.0645 185.731C21.4109 185.035 21.688 184.165 21.8958 183.122H13.7829C13.07 183.122 12.4921 182.541 12.4921 181.825V176.328C12.4921 175.611 13.07 175.031 13.7829 175.031H21.9478C21.74 173.743 21.359 172.717 20.8048 171.951C20.2506 171.151 19.5579 170.577 18.7266 170.229C17.93 169.881 16.9948 169.707 15.9211 169.707C14.6049 169.707 13.3927 170.089 12.2843 170.855C11.2106 171.621 10.5698 172.839 10.362 174.509H4.66959C1.73712 174.509 -0.755657 171.987 0.236315 169.214C0.403274 168.747 0.591991 168.303 0.802466 167.88C1.73764 166.07 2.96722 164.609 4.4912 163.495C6.01519 162.347 7.74699 161.512 9.68661 160.99C11.6609 160.468 13.739 160.207 15.9211 160.207C18.3803 160.207 20.6662 160.555 22.779 161.251C24.9265 161.947 26.7968 163.025 28.3901 164.487C30.018 165.948 31.2822 167.845 32.1827 170.176C33.1179 172.473 33.5855 175.222 33.5855 178.424V179.468C33.5855 182.843 33.1352 185.731 32.2347 188.132C31.3688 190.499 30.1392 192.43 28.5459 193.926C26.9527 195.423 25.0823 196.519 22.9349 197.215C20.7875 197.876 18.4495 198.207 15.9211 198.207Z" fill="#18A058"/>
<path d="M43.3088 197.476C40.4573 197.476 38.1457 195.153 38.1457 192.289V166.125C38.1457 163.26 40.4573 160.937 43.3088 160.937H53.9916C57.5592 160.937 60.4686 161.442 62.7199 162.451C64.9713 163.46 66.6338 164.922 67.7075 166.836C68.7812 168.715 69.3181 171.029 69.3181 173.778C69.3181 176.388 68.7812 178.632 67.7075 180.512C66.6338 182.391 64.9713 183.835 62.7199 184.844C60.4686 185.853 57.5592 186.358 53.9916 186.358H49.6795V192.289C49.6795 195.153 47.3678 197.476 44.5163 197.476H43.3088ZM49.6795 177.745H52.6408C54.5458 177.745 55.8793 177.397 56.6413 176.701C57.4033 175.97 57.7843 174.996 57.7843 173.778C57.7843 172.56 57.4033 171.603 56.6413 170.907C55.8793 170.176 54.5458 169.811 52.6408 169.811H49.6795V177.745Z" fill="#18A058"/>
<path d="M89.9276 198.207C86.5333 198.207 83.5026 197.598 80.8356 196.38C78.1687 195.127 76.0732 193.126 74.5492 190.377C73.0599 187.628 72.3152 183.991 72.3152 179.468V178.424C72.3152 175.187 72.7655 172.421 73.666 170.124C74.5665 167.828 75.8134 165.948 77.4067 164.487C79.0346 163.025 80.9222 161.947 83.0697 161.251C85.2171 160.555 87.5031 160.207 89.9276 160.207C92.1443 160.207 94.2225 160.468 96.1621 160.99C98.1364 161.512 99.8681 162.347 101.357 163.495C102.881 164.609 104.094 166.07 104.994 167.88C105.204 168.286 105.395 168.713 105.564 169.16C106.62 171.938 104.119 174.509 101.159 174.509H96.0958C95.4495 174.509 94.9161 174.025 94.7544 173.396C94.4405 172.175 93.9053 171.294 93.1488 170.751C92.2136 170.055 91.1399 169.707 89.9276 169.707C88.8539 169.707 87.8668 169.985 86.9662 170.542C86.1003 171.099 85.4076 172.021 84.8881 173.308C84.3685 174.561 84.1087 176.266 84.1087 178.424V179.468C84.1087 181.173 84.2646 182.617 84.5763 183.8C84.8881 184.948 85.3037 185.888 85.8232 186.619C86.3428 187.35 86.9489 187.889 87.6416 188.237C88.369 188.55 89.131 188.707 89.9276 188.707C91.2784 188.707 92.4041 188.359 93.3046 187.663C93.9992 187.099 94.4877 186.225 94.7702 185.04C94.9227 184.401 95.4605 183.904 96.115 183.904H101.163C104.121 183.904 106.613 186.463 105.621 189.263C105.451 189.744 105.259 190.202 105.046 190.638C104.18 192.448 103.003 193.909 101.513 195.023C100.024 196.136 98.2922 196.954 96.318 197.476C94.3437 197.963 92.2136 198.207 89.9276 198.207Z" fill="#18A058"/>
<path d="M115.913 197.476C113.061 197.476 110.749 195.153 110.749 192.289V166.125C110.749 163.26 113.061 160.937 115.913 160.937H138.837C141.688 160.937 144 163.26 144 166.125V192.289C144 195.153 141.688 197.476 138.837 197.476H133.757C133.044 197.476 132.466 196.895 132.466 196.179V171.63C132.466 170.914 131.888 170.333 131.175 170.333H123.574C122.861 170.333 122.283 170.914 122.283 171.63V196.179C122.283 196.895 121.705 197.476 120.992 197.476H115.913Z" fill="#18A058"/>
<path d="M102.859 94.4412C102.86 94.4408 102.86 94.4397 102.859 94.4393C102.858 94.4389 102.858 94.4379 102.859 94.4375L139.611 74.5219C142.327 73.0502 144 70.3305 144 67.3872V47.767C144 45.3888 141.257 43.9024 139.063 45.0915L52.9371 91.7648C50.7429 92.9539 50.7429 95.9267 52.9371 97.1158L73.7863 108.413C74.8047 108.965 76.0594 108.965 77.0778 108.413L102.859 94.4412Z" fill="#05803F"/>
<path d="M102.859 94.4375C102.86 94.4379 102.86 94.4389 102.859 94.4393C102.858 94.4397 102.858 94.4408 102.859 94.4412L139.611 114.358C142.327 115.829 144 118.549 144 121.492V141.113C144 143.491 141.257 144.977 139.063 143.788L52.9371 97.1158C50.7429 95.9267 50.7429 92.9539 52.9371 91.7648L75.432 79.5746L102.859 94.4375Z" fill="#18A058"/>
<path d="M41.1429 49.9768C41.1413 49.976 41.1413 49.9739 41.1429 49.9731L4.38857 30.0555C1.67291 28.5839 0 25.8642 0 22.9209V3.30066C0 0.922453 2.74285 -0.563933 4.93714 0.625173L91.0629 47.2985C93.2571 48.4876 93.2571 51.4603 91.0629 52.6494L70.2137 63.9469C69.1953 64.4988 67.9406 64.4988 66.9222 63.9469L41.1429 49.9768Z" fill="#05803F"/>
<path d="M41.1411 49.9711C41.1403 49.9716 41.1403 49.9726 41.1411 49.973C41.1419 49.9734 41.1419 49.9745 41.1411 49.9749L4.38857 69.8915C1.67291 71.3631 0 74.0828 0 77.0261V96.6464C0 99.0246 2.74285 100.511 4.93714 99.3218L91.0629 52.6494C93.2571 51.4603 93.2571 48.4876 91.0629 47.2985L68.568 35.1083L41.1411 49.9711Z" fill="#18A058"/>
</svg>
