<svg width="145" height="145" viewBox="0 0 145 145" fill="none" xmlns="http://www.w3.org/2000/svg">
<path d="M103.156 94.8541C103.157 94.8536 103.157 94.8526 103.156 94.8522C103.155 94.8518 103.155 94.8507 103.156 94.8503L139.909 74.9337C142.624 73.4621 144.297 70.7424 144.297 67.7991V48.1788C144.297 45.8006 141.554 44.3142 139.36 45.5034L53.2343 92.1758C51.04 93.3649 51.04 96.3376 53.2343 97.5267L74.0834 108.825C75.1018 109.377 76.3565 109.377 77.3749 108.825L103.156 94.8541Z" fill="#05803F"/>
<path d="M103.156 94.8493C103.157 94.8497 103.157 94.8508 103.156 94.8512C103.155 94.8516 103.155 94.8527 103.156 94.8531L139.909 114.77C142.624 116.241 144.297 118.961 144.297 121.904V141.525C144.297 143.903 141.554 145.389 139.36 144.2L53.2343 97.5276C51.04 96.3385 51.04 93.3658 53.2343 92.1767L75.7292 79.9864L103.156 94.8493Z" fill="#18A058"/>
<path d="M41.44 50.3887C41.4384 50.3878 41.4384 50.3858 41.44 50.3849L4.68569 30.4674C1.97003 28.9958 0.297119 26.2761 0.297119 23.3328V3.71253C0.297119 1.33432 3.03997 -0.152067 5.23425 1.03704L91.36 47.7094C93.5543 48.8985 93.5543 51.8713 91.36 53.0604L70.5108 64.3588C69.4924 64.9107 68.2377 64.9107 67.2194 64.3588L41.44 50.3887Z" fill="#05803F"/>
<path d="M41.4382 50.383C41.4375 50.3834 41.4375 50.3845 41.4382 50.3849C41.439 50.3853 41.439 50.3863 41.4382 50.3868L4.68569 70.3033C1.97003 71.775 0.297119 74.4947 0.297119 77.438V97.0582C0.297119 99.4364 3.03997 100.923 5.23425 99.7337L91.36 53.0613C93.5543 51.8722 93.5543 48.8994 91.36 47.7103L68.8651 35.5201L41.4382 50.383Z" fill="#18A058"/>
</svg>
