<svg width="350" height="452" viewBox="0 0 350 452" fill="none" xmlns="http://www.w3.org/2000/svg">
<path fill-rule="evenodd" clip-rule="evenodd" d="M44 -9.15527e-05L169 72.1687L219 101.036L169 129.904L44 202.073V144.337L119 101.036L44 57.7349V-9.15527e-05Z" fill="#18A058"/>
<path fill-rule="evenodd" clip-rule="evenodd" d="M306 272.038L181 199.869L131 171.001L181 142.134L306 69.9651V127.7L231 171.001L306 214.303V272.038Z" fill="#18A058"/>
<path d="M7.86816 413V295.909H58.4094C67.0997 295.909 74.7037 297.491 81.2215 300.655C87.7393 303.818 92.8086 308.373 96.4296 314.319C100.051 320.265 101.861 327.393 101.861 335.702C101.861 344.087 99.9934 351.158 96.2581 356.913C92.5609 362.669 87.3581 367.014 80.6498 369.949C73.9796 372.884 66.1849 374.351 57.2659 374.351H27.0784V349.652H50.8625C54.5978 349.652 57.7805 349.195 60.4104 348.28C63.0785 347.327 65.1177 345.822 66.528 343.763C67.9764 341.705 68.7006 339.018 68.7006 335.702C68.7006 332.348 67.9764 329.623 66.528 327.526C65.1177 325.392 63.0785 323.829 60.4104 322.838C57.7805 321.809 54.5978 321.294 50.8625 321.294H39.6565V413H7.86816ZM76.4761 359.257L105.749 413H71.2162L42.6295 359.257H76.4761ZM160.464 413H115.411V295.909H160.006C172.051 295.909 182.456 298.253 191.223 302.942C200.028 307.592 206.812 314.3 211.577 323.067C216.379 331.795 218.78 342.258 218.78 354.455C218.78 366.652 216.398 377.134 211.634 385.9C206.869 394.629 200.123 401.337 191.394 406.025C182.666 410.675 172.356 413 160.464 413ZM147.199 386.014H159.32C165.114 386.014 170.05 385.081 174.128 383.213C178.245 381.345 181.37 378.125 183.505 373.551C185.677 368.977 186.763 362.612 186.763 354.455C186.763 346.298 185.658 339.933 183.447 335.359C181.275 330.785 178.073 327.564 173.842 325.697C169.65 323.829 164.504 322.895 158.405 322.895H147.199V386.014ZM342.804 339.818H310.558C310.329 337.15 309.719 334.73 308.728 332.557C307.775 330.385 306.441 328.517 304.726 326.954C303.049 325.354 301.01 324.134 298.609 323.295C296.207 322.419 293.482 321.98 290.433 321.98C285.097 321.98 280.58 323.276 276.883 325.868C273.224 328.46 270.441 332.176 268.536 337.017C266.668 341.858 265.734 347.67 265.734 354.455C265.734 361.621 266.687 367.624 268.593 372.464C270.537 377.267 273.338 380.888 276.997 383.327C280.656 385.729 285.059 386.929 290.204 386.929C293.139 386.929 295.769 386.567 298.094 385.843C300.419 385.081 302.439 383.994 304.154 382.584C305.87 381.174 307.261 379.478 308.328 377.496C309.433 375.476 310.177 373.208 310.558 370.692L342.804 370.921C342.422 375.876 341.031 380.926 338.63 386.072C336.229 391.179 332.817 395.905 328.396 400.251C324.013 404.558 318.581 408.026 312.102 410.656C305.622 413.286 298.094 414.601 289.518 414.601C278.77 414.601 269.126 412.295 260.588 407.683C252.089 403.071 245.361 396.287 240.406 387.329C235.489 378.372 233.031 367.414 233.031 354.455C233.031 341.419 235.547 330.442 240.578 321.523C245.609 312.566 252.394 305.8 260.931 301.226C269.469 296.614 278.998 294.308 289.518 294.308C296.913 294.308 303.716 295.319 309.929 297.339C316.142 299.359 321.592 302.313 326.281 306.201C330.969 310.05 334.742 314.796 337.601 320.437C340.46 326.078 342.194 332.538 342.804 339.818Z" fill="#18A058"/>
</svg>
